<svg width="186" height="147" viewBox="0 0 186 147" fill="none" xmlns="http://www.w3.org/2000/svg">
    <title>Edgardo Carreras Software Productivity Consultant</title>
    <desc>Edgardo Carreras Software Productivity Consultant</desc>
    <path d="M12.7579 133.055C12.1932 133.055 11.6542 132.96 11.1409 132.769C10.6349 132.571 10.2389 132.318 9.9529 132.01L10.2059 131.592C10.4772 131.878 10.8402 132.113 11.2949 132.296C11.7569 132.472 12.2409 132.56 12.7469 132.56C13.4802 132.56 14.0339 132.421 14.4079 132.142C14.7819 131.863 14.9689 131.5 14.9689 131.053C14.9689 130.708 14.8699 130.433 14.6719 130.228C14.4739 130.023 14.2282 129.865 13.9349 129.755C13.6416 129.645 13.2456 129.531 12.7469 129.414C12.1822 129.275 11.7276 129.139 11.3829 129.007C11.0456 128.875 10.7559 128.673 10.5139 128.402C10.2792 128.123 10.1619 127.753 10.1619 127.291C10.1619 126.917 10.2609 126.576 10.4589 126.268C10.6569 125.953 10.9576 125.703 11.3609 125.52C11.7716 125.337 12.2812 125.245 12.8899 125.245C13.3152 125.245 13.7332 125.307 14.1439 125.432C14.5546 125.557 14.9102 125.725 15.2109 125.938L15.0019 126.389C14.6939 126.176 14.3529 126.015 13.9789 125.905C13.6122 125.795 13.2492 125.74 12.8899 125.74C12.1786 125.74 11.6396 125.883 11.2729 126.169C10.9062 126.455 10.7229 126.825 10.7229 127.28C10.7229 127.625 10.8219 127.9 11.0199 128.105C11.2179 128.31 11.4636 128.468 11.7569 128.578C12.0502 128.688 12.4499 128.805 12.9559 128.93C13.5206 129.069 13.9716 129.205 14.3089 129.337C14.6462 129.469 14.9322 129.671 15.1669 129.942C15.4089 130.206 15.5299 130.565 15.5299 131.02C15.5299 131.394 15.4272 131.735 15.2219 132.043C15.0239 132.351 14.7159 132.597 14.2979 132.78C13.8799 132.963 13.3666 133.055 12.7579 133.055ZM21.98 133.044C21.4374 133.044 20.946 132.919 20.506 132.67C20.0734 132.421 19.7324 132.076 19.483 131.636C19.2337 131.189 19.109 130.686 19.109 130.129C19.109 129.572 19.2337 129.073 19.483 128.633C19.7324 128.186 20.0734 127.837 20.506 127.588C20.946 127.339 21.4374 127.214 21.98 127.214C22.5227 127.214 23.0104 127.339 23.443 127.588C23.883 127.837 24.2277 128.186 24.477 128.633C24.7264 129.073 24.851 129.572 24.851 130.129C24.851 130.686 24.7264 131.189 24.477 131.636C24.2277 132.076 23.883 132.421 23.443 132.67C23.0104 132.919 22.5227 133.044 21.98 133.044ZM21.98 132.549C22.42 132.549 22.8124 132.446 23.157 132.241C23.509 132.036 23.784 131.75 23.982 131.383C24.1874 131.016 24.29 130.598 24.29 130.129C24.29 129.66 24.1874 129.242 23.982 128.875C23.784 128.508 23.509 128.222 23.157 128.017C22.8124 127.812 22.42 127.709 21.98 127.709C21.54 127.709 21.144 127.812 20.792 128.017C20.4474 128.222 20.1724 128.508 19.967 128.875C19.769 129.242 19.67 129.66 19.67 130.129C19.67 130.598 19.769 131.016 19.967 131.383C20.1724 131.75 20.4474 132.036 20.792 132.241C21.144 132.446 21.54 132.549 21.98 132.549ZM30.7593 125.267C30.0406 125.267 29.6813 125.652 29.6813 126.422V127.258H31.5183V127.731H29.6923V133H29.1423V127.731H28.0863V127.258H29.1423V126.378C29.1423 125.894 29.2816 125.509 29.5603 125.223C29.839 124.937 30.2313 124.794 30.7373 124.794C30.9573 124.794 31.1663 124.827 31.3643 124.893C31.5696 124.952 31.7383 125.043 31.8703 125.168L31.6503 125.586C31.4156 125.373 31.1186 125.267 30.7593 125.267ZM37.9657 132.637C37.8264 132.769 37.6504 132.872 37.4377 132.945C37.2324 133.011 37.016 133.044 36.7887 133.044C36.29 133.044 35.905 132.908 35.6337 132.637C35.3624 132.358 35.2267 131.973 35.2267 131.482V127.731H34.1707V127.258H35.2267V126.004H35.7767V127.258H37.6027V127.731H35.7767V131.427C35.7767 131.801 35.8647 132.087 36.0407 132.285C36.224 132.476 36.4917 132.571 36.8437 132.571C37.203 132.571 37.5 132.465 37.7347 132.252L37.9657 132.637ZM50.0731 127.258L47.8951 133H47.3781L45.4421 128.017L43.4951 133H42.9891L40.8111 127.258H41.3391L43.2531 132.384L45.2111 127.258H45.6841L47.6311 132.373L49.5671 127.258H50.0731ZM55.5916 127.214C56.3029 127.214 56.8492 127.397 57.2306 127.764C57.6119 128.123 57.8026 128.655 57.8026 129.359V133H57.2746V131.977C57.0912 132.314 56.8236 132.578 56.4716 132.769C56.1196 132.952 55.6979 133.044 55.2066 133.044C54.5686 133.044 54.0626 132.894 53.6886 132.593C53.3219 132.292 53.1386 131.896 53.1386 131.405C53.1386 130.928 53.3072 130.543 53.6446 130.25C53.9892 129.949 54.5356 129.799 55.2836 129.799H57.2526V129.337C57.2526 128.802 57.1059 128.395 56.8126 128.116C56.5266 127.837 56.1049 127.698 55.5476 127.698C55.1662 127.698 54.7996 127.764 54.4476 127.896C54.1029 128.028 53.8096 128.204 53.5676 128.424L53.2926 128.028C53.5786 127.771 53.9232 127.573 54.3266 127.434C54.7299 127.287 55.1516 127.214 55.5916 127.214ZM55.2836 132.593C55.7602 132.593 56.1636 132.483 56.4936 132.263C56.8309 132.043 57.0839 131.724 57.2526 131.306V130.228H55.2946C54.7299 130.228 54.3192 130.331 54.0626 130.536C53.8132 130.741 53.6886 131.024 53.6886 131.383C53.6886 131.757 53.8279 132.054 54.1066 132.274C54.3852 132.487 54.7776 132.593 55.2836 132.593ZM63.0716 128.512C63.2476 128.094 63.5226 127.775 63.8966 127.555C64.2706 127.328 64.7253 127.214 65.2606 127.214V127.753L65.1286 127.742C64.4906 127.742 63.992 127.944 63.6326 128.347C63.2733 128.743 63.0936 129.297 63.0936 130.008V133H62.5436V127.258H63.0716V128.512ZM74.0484 130.261H69.1094C69.124 130.708 69.2377 131.108 69.4504 131.46C69.663 131.805 69.949 132.072 70.3084 132.263C70.675 132.454 71.0857 132.549 71.5404 132.549C71.9144 132.549 72.259 132.483 72.5744 132.351C72.897 132.212 73.1647 132.01 73.3774 131.746L73.6964 132.109C73.447 132.41 73.1317 132.641 72.7504 132.802C72.3764 132.963 71.9694 133.044 71.5294 133.044C70.9574 133.044 70.4477 132.919 70.0004 132.67C69.553 132.421 69.201 132.076 68.9444 131.636C68.695 131.196 68.5704 130.694 68.5704 130.129C68.5704 129.572 68.6877 129.073 68.9224 128.633C69.1644 128.186 69.4944 127.837 69.9124 127.588C70.3304 127.339 70.7997 127.214 71.3204 127.214C71.841 127.214 72.3067 127.339 72.7174 127.588C73.1354 127.83 73.4617 128.171 73.6964 128.611C73.9384 129.051 74.0594 129.55 74.0594 130.107L74.0484 130.261ZM71.3204 127.698C70.917 127.698 70.554 127.79 70.2314 127.973C69.9087 128.149 69.6484 128.402 69.4504 128.732C69.2597 129.055 69.1497 129.421 69.1204 129.832H73.5204C73.4984 129.421 73.3884 129.055 73.1904 128.732C72.9924 128.409 72.732 128.156 72.4094 127.973C72.0867 127.79 71.7237 127.698 71.3204 127.698ZM86.473 125.3C87.441 125.3 88.2 125.531 88.75 125.993C89.3 126.448 89.575 127.082 89.575 127.896C89.575 128.703 89.3 129.337 88.75 129.799C88.2 130.254 87.441 130.481 86.473 130.481H84.273V133H83.712V125.3H86.473ZM86.473 129.975C87.2944 129.975 87.9214 129.795 88.354 129.436C88.7867 129.077 89.003 128.563 89.003 127.896C89.003 127.229 88.7867 126.715 88.354 126.356C87.9214 125.989 87.2944 125.806 86.473 125.806H84.273V129.975H86.473ZM94.1123 128.512C94.2883 128.094 94.5633 127.775 94.9373 127.555C95.3113 127.328 95.7659 127.214 96.3013 127.214V127.753L96.1693 127.742C95.5313 127.742 95.0326 127.944 94.6733 128.347C94.3139 128.743 94.1343 129.297 94.1343 130.008V133H93.5843V127.258H94.1123V128.512ZM102.482 133.044C101.939 133.044 101.448 132.919 101.008 132.67C100.575 132.421 100.234 132.076 99.985 131.636C99.7356 131.189 99.611 130.686 99.611 130.129C99.611 129.572 99.7356 129.073 99.985 128.633C100.234 128.186 100.575 127.837 101.008 127.588C101.448 127.339 101.939 127.214 102.482 127.214C103.025 127.214 103.512 127.339 103.945 127.588C104.385 127.837 104.73 128.186 104.979 128.633C105.228 129.073 105.353 129.572 105.353 130.129C105.353 130.686 105.228 131.189 104.979 131.636C104.73 132.076 104.385 132.421 103.945 132.67C103.512 132.919 103.025 133.044 102.482 133.044ZM102.482 132.549C102.922 132.549 103.314 132.446 103.659 132.241C104.011 132.036 104.286 131.75 104.484 131.383C104.689 131.016 104.792 130.598 104.792 130.129C104.792 129.66 104.689 129.242 104.484 128.875C104.286 128.508 104.011 128.222 103.659 128.017C103.314 127.812 102.922 127.709 102.482 127.709C102.042 127.709 101.646 127.812 101.294 128.017C100.949 128.222 100.674 128.508 100.469 128.875C100.271 129.242 100.172 129.66 100.172 130.129C100.172 130.598 100.271 131.016 100.469 131.383C100.674 131.75 100.949 132.036 101.294 132.241C101.646 132.446 102.042 132.549 102.482 132.549ZM114.638 124.838V133H114.099V131.647C113.872 132.094 113.553 132.439 113.142 132.681C112.732 132.923 112.266 133.044 111.745 133.044C111.21 133.044 110.726 132.919 110.293 132.67C109.861 132.421 109.52 132.076 109.27 131.636C109.028 131.196 108.907 130.694 108.907 130.129C108.907 129.564 109.028 129.062 109.27 128.622C109.52 128.175 109.861 127.83 110.293 127.588C110.726 127.339 111.21 127.214 111.745 127.214C112.259 127.214 112.717 127.335 113.12 127.577C113.531 127.819 113.854 128.156 114.088 128.589V124.838H114.638ZM111.778 132.549C112.218 132.549 112.611 132.446 112.955 132.241C113.307 132.036 113.582 131.75 113.78 131.383C113.986 131.016 114.088 130.598 114.088 130.129C114.088 129.66 113.986 129.242 113.78 128.875C113.582 128.508 113.307 128.222 112.955 128.017C112.611 127.812 112.218 127.709 111.778 127.709C111.338 127.709 110.942 127.812 110.59 128.017C110.246 128.222 109.971 128.508 109.765 128.875C109.567 129.242 109.468 129.66 109.468 130.129C109.468 130.598 109.567 131.016 109.765 131.383C109.971 131.75 110.246 132.036 110.59 132.241C110.942 132.446 111.338 132.549 111.778 132.549ZM124.459 127.258V133H123.931V131.768C123.74 132.171 123.458 132.487 123.084 132.714C122.71 132.934 122.27 133.044 121.764 133.044C121.016 133.044 120.429 132.835 120.004 132.417C119.579 131.999 119.366 131.398 119.366 130.613V127.258H119.916V130.569C119.916 131.214 120.081 131.706 120.411 132.043C120.741 132.38 121.207 132.549 121.808 132.549C122.453 132.549 122.963 132.347 123.337 131.944C123.718 131.541 123.909 130.998 123.909 130.316V127.258H124.459ZM131.543 133.044C130.985 133.044 130.487 132.919 130.047 132.67C129.607 132.421 129.262 132.076 129.013 131.636C128.763 131.189 128.639 130.686 128.639 130.129C128.639 129.564 128.763 129.062 129.013 128.622C129.262 128.175 129.607 127.83 130.047 127.588C130.487 127.339 130.985 127.214 131.543 127.214C132.005 127.214 132.423 127.306 132.797 127.489C133.178 127.665 133.486 127.925 133.721 128.27L133.314 128.567C133.108 128.281 132.852 128.068 132.544 127.929C132.243 127.782 131.909 127.709 131.543 127.709C131.095 127.709 130.692 127.812 130.333 128.017C129.981 128.215 129.702 128.497 129.497 128.864C129.299 129.231 129.2 129.652 129.2 130.129C129.2 130.606 129.299 131.027 129.497 131.394C129.702 131.761 129.981 132.047 130.333 132.252C130.692 132.45 131.095 132.549 131.543 132.549C131.909 132.549 132.243 132.479 132.544 132.34C132.852 132.193 133.108 131.977 133.314 131.691L133.721 131.988C133.486 132.333 133.178 132.597 132.797 132.78C132.423 132.956 132.005 133.044 131.543 133.044ZM140.756 132.637C140.616 132.769 140.44 132.872 140.228 132.945C140.022 133.011 139.806 133.044 139.579 133.044C139.08 133.044 138.695 132.908 138.424 132.637C138.152 132.358 138.017 131.973 138.017 131.482V127.731H136.961V127.258H138.017V126.004H138.567V127.258H140.393V127.731H138.567V131.427C138.567 131.801 138.655 132.087 138.831 132.285C139.014 132.476 139.282 132.571 139.634 132.571C139.993 132.571 140.29 132.465 140.525 132.252L140.756 132.637ZM144.764 127.258H145.314V133H144.764V127.258ZM145.039 125.861C144.915 125.861 144.808 125.821 144.72 125.74C144.632 125.652 144.588 125.546 144.588 125.421C144.588 125.296 144.632 125.19 144.72 125.102C144.808 125.014 144.915 124.97 145.039 124.97C145.164 124.97 145.27 125.014 145.358 125.102C145.446 125.183 145.49 125.285 145.49 125.41C145.49 125.535 145.446 125.641 145.358 125.729C145.27 125.817 145.164 125.861 145.039 125.861ZM154.716 127.258L152.12 133H151.559L148.974 127.258H149.557L151.845 132.395L154.155 127.258H154.716ZM158.394 127.258H158.944V133H158.394V127.258ZM158.669 125.861C158.544 125.861 158.438 125.821 158.35 125.74C158.262 125.652 158.218 125.546 158.218 125.421C158.218 125.296 158.262 125.19 158.35 125.102C158.438 125.014 158.544 124.97 158.669 124.97C158.794 124.97 158.9 125.014 158.988 125.102C159.076 125.183 159.12 125.285 159.12 125.41C159.12 125.535 159.076 125.641 158.988 125.729C158.9 125.817 158.794 125.861 158.669 125.861ZM166.586 132.637C166.447 132.769 166.271 132.872 166.058 132.945C165.853 133.011 165.637 133.044 165.409 133.044C164.911 133.044 164.526 132.908 164.254 132.637C163.983 132.358 163.847 131.973 163.847 131.482V127.731H162.791V127.258H163.847V126.004H164.397V127.258H166.223V127.731H164.397V131.427C164.397 131.801 164.485 132.087 164.661 132.285C164.845 132.476 165.112 132.571 165.464 132.571C165.824 132.571 166.121 132.465 166.355 132.252L166.586 132.637ZM175.097 127.258L172.149 133.781C171.929 134.287 171.672 134.646 171.379 134.859C171.093 135.072 170.752 135.178 170.356 135.178C170.092 135.178 169.842 135.134 169.608 135.046C169.38 134.958 169.186 134.83 169.025 134.661L169.3 134.243C169.593 134.544 169.949 134.694 170.367 134.694C170.645 134.694 170.884 134.617 171.082 134.463C171.28 134.309 171.463 134.045 171.632 133.671L171.94 132.978L169.355 127.258H169.938L172.237 132.395L174.536 127.258H175.097ZM57.0542 146.055C56.2989 146.055 55.6169 145.886 55.0082 145.549C54.4069 145.212 53.9302 144.746 53.5782 144.152C53.2336 143.558 53.0612 142.891 53.0612 142.15C53.0612 141.409 53.2336 140.742 53.5782 140.148C53.9302 139.554 54.4069 139.088 55.0082 138.751C55.6169 138.414 56.2989 138.245 57.0542 138.245C57.6116 138.245 58.1249 138.337 58.5942 138.52C59.0636 138.696 59.4632 138.96 59.7932 139.312L59.4412 139.675C58.8252 139.066 58.0369 138.762 57.0762 138.762C56.4309 138.762 55.8442 138.909 55.3162 139.202C54.7882 139.495 54.3739 139.902 54.0732 140.423C53.7726 140.936 53.6222 141.512 53.6222 142.15C53.6222 142.788 53.7726 143.367 54.0732 143.888C54.3739 144.401 54.7882 144.805 55.3162 145.098C55.8442 145.391 56.4309 145.538 57.0762 145.538C58.0296 145.538 58.8179 145.23 59.4412 144.614L59.7932 144.977C59.4632 145.329 59.0599 145.597 58.5832 145.78C58.1139 145.963 57.6042 146.055 57.0542 146.055ZM65.9467 146.044C65.4041 146.044 64.9127 145.919 64.4727 145.67C64.0401 145.421 63.6991 145.076 63.4497 144.636C63.2004 144.189 63.0757 143.686 63.0757 143.129C63.0757 142.572 63.2004 142.073 63.4497 141.633C63.6991 141.186 64.0401 140.837 64.4727 140.588C64.9127 140.339 65.4041 140.214 65.9467 140.214C66.4894 140.214 66.9771 140.339 67.4097 140.588C67.8497 140.837 68.1944 141.186 68.4437 141.633C68.6931 142.073 68.8177 142.572 68.8177 143.129C68.8177 143.686 68.6931 144.189 68.4437 144.636C68.1944 145.076 67.8497 145.421 67.4097 145.67C66.9771 145.919 66.4894 146.044 65.9467 146.044ZM65.9467 145.549C66.3867 145.549 66.7791 145.446 67.1237 145.241C67.4757 145.036 67.7507 144.75 67.9487 144.383C68.1541 144.016 68.2567 143.598 68.2567 143.129C68.2567 142.66 68.1541 142.242 67.9487 141.875C67.7507 141.508 67.4757 141.222 67.1237 141.017C66.7791 140.812 66.3867 140.709 65.9467 140.709C65.5067 140.709 65.1107 140.812 64.7587 141.017C64.4141 141.222 64.1391 141.508 63.9337 141.875C63.7357 142.242 63.6367 142.66 63.6367 143.129C63.6367 143.598 63.7357 144.016 63.9337 144.383C64.1391 144.75 64.4141 145.036 64.7587 145.241C65.1107 145.446 65.5067 145.549 65.9467 145.549ZM75.804 140.214C76.5227 140.214 77.091 140.423 77.509 140.841C77.927 141.259 78.136 141.86 78.136 142.645V146H77.586V142.689C77.586 142.044 77.421 141.552 77.091 141.215C76.7683 140.878 76.3137 140.709 75.727 140.709C75.0523 140.709 74.5207 140.911 74.132 141.314C73.7433 141.717 73.549 142.26 73.549 142.942V146H72.999V140.258H73.527V141.501C73.725 141.098 74.0183 140.782 74.407 140.555C74.803 140.328 75.2687 140.214 75.804 140.214ZM84.3274 146.044C83.8654 146.044 83.4254 145.974 83.0074 145.835C82.5894 145.696 82.263 145.52 82.0284 145.307L82.2814 144.867C82.516 145.065 82.8167 145.23 83.1834 145.362C83.5574 145.494 83.946 145.56 84.3494 145.56C84.9287 145.56 85.354 145.465 85.6254 145.274C85.904 145.083 86.0434 144.819 86.0434 144.482C86.0434 144.24 85.9664 144.049 85.8124 143.91C85.6657 143.771 85.4824 143.668 85.2624 143.602C85.0424 143.536 84.738 143.466 84.3494 143.393C83.8947 143.312 83.528 143.224 83.2494 143.129C82.9707 143.034 82.7324 142.88 82.5344 142.667C82.3364 142.454 82.2374 142.161 82.2374 141.787C82.2374 141.332 82.4244 140.958 82.7984 140.665C83.1797 140.364 83.7187 140.214 84.4154 140.214C84.782 140.214 85.145 140.265 85.5044 140.368C85.8637 140.471 86.157 140.606 86.3844 140.775L86.1314 141.215C85.8967 141.046 85.629 140.918 85.3284 140.83C85.0277 140.742 84.7197 140.698 84.4044 140.698C83.869 140.698 83.4657 140.797 83.1944 140.995C82.923 141.193 82.7874 141.453 82.7874 141.776C82.7874 142.033 82.8644 142.234 83.0184 142.381C83.1724 142.52 83.3594 142.627 83.5794 142.7C83.8067 142.766 84.122 142.839 84.5254 142.92C84.9727 143.001 85.332 143.089 85.6034 143.184C85.882 143.272 86.1167 143.419 86.3074 143.624C86.498 143.829 86.5934 144.112 86.5934 144.471C86.5934 144.948 86.3954 145.329 85.9994 145.615C85.6034 145.901 85.046 146.044 84.3274 146.044ZM95.6303 140.258V146H95.1023V144.768C94.9116 145.171 94.6293 145.487 94.2553 145.714C93.8813 145.934 93.4413 146.044 92.9353 146.044C92.1873 146.044 91.6006 145.835 91.1753 145.417C90.75 144.999 90.5373 144.398 90.5373 143.613V140.258H91.0873V143.569C91.0873 144.214 91.2523 144.706 91.5823 145.043C91.9123 145.38 92.378 145.549 92.9793 145.549C93.6246 145.549 94.1343 145.347 94.5083 144.944C94.8896 144.541 95.0803 143.998 95.0803 143.316V140.258H95.6303ZM100.437 137.838H100.987V146H100.437V137.838ZM108.554 145.637C108.414 145.769 108.238 145.872 108.026 145.945C107.82 146.011 107.604 146.044 107.377 146.044C106.878 146.044 106.493 145.908 106.222 145.637C105.95 145.358 105.815 144.973 105.815 144.482V140.731H104.759V140.258H105.815V139.004H106.365V140.258H108.191V140.731H106.365V144.427C106.365 144.801 106.453 145.087 106.629 145.285C106.812 145.476 107.08 145.571 107.432 145.571C107.791 145.571 108.088 145.465 108.323 145.252L108.554 145.637ZM114.498 140.214C115.21 140.214 115.756 140.397 116.137 140.764C116.519 141.123 116.709 141.655 116.709 142.359V146H116.181V144.977C115.998 145.314 115.73 145.578 115.378 145.769C115.026 145.952 114.605 146.044 114.113 146.044C113.475 146.044 112.969 145.894 112.595 145.593C112.229 145.292 112.045 144.896 112.045 144.405C112.045 143.928 112.214 143.543 112.551 143.25C112.896 142.949 113.442 142.799 114.19 142.799H116.159V142.337C116.159 141.802 116.013 141.395 115.719 141.116C115.433 140.837 115.012 140.698 114.454 140.698C114.073 140.698 113.706 140.764 113.354 140.896C113.01 141.028 112.716 141.204 112.474 141.424L112.199 141.028C112.485 140.771 112.83 140.573 113.233 140.434C113.637 140.287 114.058 140.214 114.498 140.214ZM114.19 145.593C114.667 145.593 115.07 145.483 115.4 145.263C115.738 145.043 115.991 144.724 116.159 144.306V143.228H114.201C113.637 143.228 113.226 143.331 112.969 143.536C112.72 143.741 112.595 144.024 112.595 144.383C112.595 144.757 112.735 145.054 113.013 145.274C113.292 145.487 113.684 145.593 114.19 145.593ZM124.256 140.214C124.974 140.214 125.543 140.423 125.961 140.841C126.379 141.259 126.588 141.86 126.588 142.645V146H126.038V142.689C126.038 142.044 125.873 141.552 125.543 141.215C125.22 140.878 124.765 140.709 124.179 140.709C123.504 140.709 122.972 140.911 122.584 141.314C122.195 141.717 122.001 142.26 122.001 142.942V146H121.451V140.258H121.979V141.501C122.177 141.098 122.47 140.782 122.859 140.555C123.255 140.328 123.72 140.214 124.256 140.214ZM134.176 145.637C134.037 145.769 133.861 145.872 133.648 145.945C133.443 146.011 133.226 146.044 132.999 146.044C132.5 146.044 132.115 145.908 131.844 145.637C131.573 145.358 131.437 144.973 131.437 144.482V140.731H130.381V140.258H131.437V139.004H131.987V140.258H133.813V140.731H131.987V144.427C131.987 144.801 132.075 145.087 132.251 145.285C132.434 145.476 132.702 145.571 133.054 145.571C133.413 145.571 133.71 145.465 133.945 145.252L134.176 145.637Z" fill="white"/>
    <path d="M23.9631 81.4313L9.91177 81.3045L10.0384 72.0472H22.1909V70.6523L10.0384 70.5255V61.5218L23.5834 61.6486L23.7099 60.1268L8.39271 60L8.26611 82.8263L23.9631 82.9531V81.4313Z" fill="white"/>
    <path d="M51.1804 71.7936C51.1804 65.1994 46.37 60.3805 39.1544 60.2537H30.1666L30.04 83.08H39.0278C46.2434 83.08 51.1804 78.3879 51.1804 71.7936ZM31.6857 81.5582L31.8123 61.7754H39.0278C45.4839 61.7754 49.5347 65.9602 49.5347 71.7936C49.5347 77.627 45.3573 81.685 38.9012 81.5582H31.6857Z" fill="white"/>
    <path d="M66.6246 83.4604C69.7893 83.4604 72.7008 82.5727 74.7262 80.5437V72.0473H73.0806V79.9097C71.1817 81.4314 69.0298 81.9387 66.6246 81.9387C60.6749 81.9387 56.3709 77.5002 56.3709 71.7936C56.3709 66.0871 60.8015 61.7754 66.7511 61.7754C69.5361 61.7754 71.9413 62.5363 73.8401 64.5653L74.8528 63.424C72.8274 61.2682 69.9159 60.2537 66.6246 60.2537C59.7888 60.2537 54.5986 65.0725 54.5986 71.7936C54.7252 78.3879 59.7888 83.3336 66.6246 83.4604Z" fill="white"/>
    <path d="M88.904 60.634L78.2705 83.3335H80.0427L82.9543 76.9929L96.1195 77.1197L99.0311 83.5871H100.803L90.5496 60.7608L88.904 60.634ZM83.5872 75.5979L89.6635 62.5362L95.6132 75.7248L83.5872 75.5979Z" fill="white"/>
    <path d="M122.45 68.4966C122.45 63.6777 119.032 60.761 113.336 60.761H105.234L105.107 83.5873H106.753V76.1054H113.209C113.969 76.1054 114.728 76.1054 115.361 75.9785L120.678 83.5873H122.577L116.88 75.5981C120.425 74.5836 122.45 72.1742 122.45 68.4966ZM113.209 74.7104H106.753L106.88 62.2827H113.336C118.273 62.2827 120.804 64.5654 120.804 68.4966C120.678 72.4278 118.146 74.7104 113.209 74.7104Z" fill="white"/>
    <path d="M149.541 72.4278C149.541 65.8335 144.73 61.0146 137.515 60.8878H128.527L128.4 83.7141H137.388C144.604 83.8409 149.541 79.022 149.541 72.4278ZM130.046 82.1924L130.173 62.4096H137.388C143.844 62.4096 147.895 66.5944 147.895 72.4278C147.895 78.2612 143.718 82.3192 137.262 82.1924H130.046Z" fill="white"/>
    <path d="M164.984 84.0945C171.693 84.0945 176.883 79.2757 176.883 72.5546C176.883 65.9603 171.946 61.0146 165.111 60.8878C158.275 60.8878 153.211 65.7067 153.211 72.4278C153.085 79.022 158.148 84.0945 164.984 84.0945ZM165.111 62.5364C170.934 62.5364 175.238 66.848 175.238 72.6814C175.238 78.388 170.807 82.6996 164.984 82.6996C159.161 82.6996 154.857 78.388 154.857 72.5546C154.857 66.7212 159.288 62.5364 165.111 62.5364Z" fill="white"/>
    <path d="M18.2288 106.489C16.7097 108.264 14.8109 109.152 12.5323 109.152C8.22827 109.152 5.31672 106.108 5.31672 101.797C5.31672 97.4849 8.35485 94.5682 12.6589 94.5682C14.9375 94.5682 16.8363 95.4559 18.3554 97.2313L21.7733 94.1878C19.6213 91.5247 16.3299 90.1298 12.4057 90.1298C5.31672 90.1298 0 94.9486 0 101.797C0 108.644 5.19014 113.59 12.2791 113.717C16.2034 113.717 19.4947 112.322 21.6467 109.659L18.2288 106.489Z" fill="white"/>
    <path d="M32.0271 90.6371L21.7734 113.337H27.2167L29.2422 108.518L39.749 108.644L41.7744 113.59H47.3444L37.3438 90.7639L32.0271 90.6371ZM30.8878 104.586L34.5589 95.8364L38.1034 104.586H30.8878Z" fill="white"/>
    <path d="M64.6877 106.362C67.5993 105.094 69.3715 102.557 69.3715 99.2603C69.3715 94.1877 65.5738 91.0174 59.4976 90.8906L49.6237 90.7638L49.4971 113.59H54.8138V107.249H59.371H59.6242L63.9282 113.59H69.6247L64.6877 106.362ZM59.2444 103.065H54.9404V95.0754H59.2444C62.4091 95.0754 64.0548 96.5972 64.0548 99.1334C64.0548 101.543 62.4091 103.065 59.2444 103.065Z" fill="white"/>
    <path d="M93.2963 99.3872C93.2963 94.3147 89.4987 91.1444 83.4224 91.0176L73.5485 90.8907L73.4219 113.717H78.7386V107.376H83.2958H83.549L87.853 113.717H93.5495L88.4859 106.362C91.5241 105.221 93.2963 102.811 93.2963 99.3872ZM83.1692 103.192H78.8652V95.2024H83.1692C86.3339 95.2024 87.9796 96.7241 87.9796 99.2604C87.9796 101.797 86.3339 103.192 83.1692 103.192Z" fill="white"/>
    <path d="M115.07 109.786L102.664 109.659V104.46H113.298V100.402L102.791 100.275V95.3292L114.69 95.456L114.817 91.1444H97.6008L97.3477 113.844L115.07 113.971V109.786Z" fill="white"/>
    <path d="M139.121 99.6409C139.121 94.5684 135.323 91.398 129.247 91.2712L119.373 91.1444L119.246 113.971H124.563V107.63H129.12H129.373L133.677 113.971H139.374L134.31 106.616C137.348 105.601 138.994 103.065 139.121 99.6409ZM128.867 103.572H124.563V95.5829H128.867C132.032 95.5829 133.677 97.1046 133.677 99.6409C133.677 102.05 132.032 103.572 128.867 103.572Z" fill="white"/>
    <path d="M150.388 91.3979L140.135 114.097H145.578L147.603 109.279L158.11 109.405L160.136 114.351H165.706L155.705 91.5248L150.388 91.3979ZM149.376 105.347L153.047 96.5973L156.591 105.347H149.376Z" fill="white"/>
    <path d="M172.035 98.119C172.035 96.7241 173.301 95.5828 176.339 95.5828C178.365 95.5828 180.517 96.2168 182.669 97.3581L184.314 93.427C182.162 92.032 179.251 91.3979 176.466 91.3979C170.01 91.3979 166.845 94.5683 166.845 98.3727C166.845 106.869 180.01 103.952 180.01 108.264C180.01 109.659 178.745 110.673 175.58 110.673C172.795 110.673 170.01 109.659 168.111 108.264L166.339 112.195C168.364 113.717 172.035 114.858 175.58 114.858C182.036 114.858 185.201 111.688 185.327 107.884C185.327 99.514 172.035 102.304 172.035 98.119Z" fill="white"/>
    <path d="M110.9 33.3314C108.829 35.9252 105.722 37.2222 101.967 37.2222C100.802 37.2222 99.7662 37.0925 98.7304 36.8331C98.601 36.8331 98.4715 36.7034 98.3421 36.7034C98.2126 36.7034 98.0831 36.5737 97.9537 36.5737C97.8242 36.5737 97.8242 36.5737 97.6947 36.444C97.4358 36.3143 97.0474 36.1846 96.7885 36.0549C96.5295 35.9252 96.2706 35.7955 96.0117 35.6658C95.2349 35.2768 94.5876 34.8877 94.0697 34.3689C93.9403 34.2392 93.8108 34.2392 93.8108 34.1095L93.6813 33.9798C91.9983 32.4235 90.9626 30.3484 90.5742 27.8842C90.5742 27.7545 90.5742 27.6248 90.5742 27.4952C90.5742 27.3655 90.5742 27.2358 90.5742 27.1061C90.5742 26.717 90.4447 26.1982 90.4447 25.6794C90.4447 24.9013 90.5742 24.2528 90.7037 23.4747C90.7037 23.345 90.7037 23.2153 90.8331 23.0856C90.8331 22.9559 90.9626 22.8262 90.9626 22.6965C91.351 21.0105 92.1278 19.4542 93.2929 18.1572C92.3867 17.1197 91.2215 16.3415 89.7974 15.8228C86.3019 19.7136 85.1367 25.5498 86.9492 30.6078C88.8912 36.1846 93.9403 39.6863 99.6367 40.4645C100.543 40.5942 101.449 40.7239 102.485 40.7239C107.663 40.7239 111.936 38.7785 114.655 35.2768L115.043 34.6283L111.677 32.4235L110.9 33.3314Z" fill="white"/>
    <path d="M102.098 10.8943C101.969 10.8943 101.969 10.8943 101.839 10.8943C98.9909 10.8943 96.4016 11.5428 94.0713 12.71C95.2365 13.4882 96.4016 14.5257 97.3079 15.5633C98.732 15.0445 100.286 14.7851 101.839 14.7851H101.969C105.853 14.7851 108.83 16.2117 110.902 18.8056L111.29 19.3244L114.656 17.1196L114.268 16.4711C111.678 12.8397 107.406 10.8943 102.098 10.8943Z" fill="white"/>
    <path d="M89.2822 36.7032C88.2465 36.9626 87.2108 37.0923 86.0456 37.0923C79.4429 37.0923 74.6528 33.3312 73.876 27.495V27.1059L85.1394 27.2356C85.1394 26.8465 85.1394 26.3277 85.1394 25.809C85.1394 25.0308 85.2688 24.3823 85.2688 23.6042H73.876L74.0054 23.2151C74.9117 18.0274 79.3135 14.6553 84.8804 14.6553H85.0099C86.5635 14.6553 87.8581 14.9147 89.1528 15.4335C89.2822 15.4335 89.4117 15.5632 89.5411 15.5632C89.6706 15.5632 89.8001 15.6929 89.9295 15.6929C91.2242 16.2117 92.3894 17.1195 93.2956 18.0274C93.4251 18.157 93.4251 18.1571 93.5545 18.2867C93.684 18.4164 93.684 18.5461 93.8135 18.5461C94.8492 19.8431 95.626 21.5291 95.8849 23.3448L96.0144 23.7339H91.0947C90.9653 24.3823 90.8358 25.1605 90.8358 25.9387C90.8358 26.4574 90.9652 26.8465 90.9652 27.3653L100.287 27.495V26.8465C100.287 26.7168 100.287 26.7168 100.287 26.5871V26.4574C100.287 26.3277 100.287 26.198 100.287 26.0683C100.287 22.4369 99.1215 19.1946 97.0501 16.6007C96.9206 16.471 96.9206 16.471 96.7911 16.3413C96.6617 16.2117 96.6617 16.2116 96.5322 16.082C95.626 15.0444 94.4608 14.0069 93.1661 13.3584C93.0367 13.2287 92.9072 13.2287 92.7777 13.099C92.6483 12.9693 92.5188 12.9693 92.3894 12.8396C90.1885 11.6724 87.7286 11.0239 84.8804 11.0239C80.4786 11.0239 76.5947 12.4505 73.7465 15.1741C70.8983 17.8977 69.3447 21.7885 69.3447 25.9387C69.3447 30.2185 70.8983 34.1093 73.876 36.8329C76.8537 39.5564 81.126 41.1128 85.7867 41.1128H85.9162C88.376 41.1128 90.8358 40.594 92.9072 39.6861C91.742 39.0377 90.5769 38.2595 89.5411 37.3517C89.5411 37.0923 89.4117 36.8329 89.2822 36.7032Z" fill="white"/>
    <path d="M105.594 0H78.4063C69.8616 0 63 6.87374 63 15.4335V36.1844C63 44.7442 69.8616 51.618 78.4063 51.618H105.594C114.138 51.618 121 44.7442 121 36.1844V15.4335C121 7.00344 114.138 0 105.594 0ZM117.634 36.3141C117.634 42.9285 112.196 48.3756 105.594 48.3756H78.4063C71.8036 48.3756 66.3661 42.9285 66.3661 36.3141V15.5632C66.3661 8.94884 71.8036 3.50172 78.4063 3.50172H105.594C112.196 3.50172 117.634 8.94884 117.634 15.5632V36.3141Z" fill="white"/>
</svg>
