<svg width="36" height="35" viewBox="0 0 36 35" fill="none" xmlns="http://www.w3.org/2000/svg">
    <path d="M29.7314 22.5441C28.4457 24.2834 26.5171 25.153 24.1868 25.153C23.4636 25.153 22.8207 25.066 22.1778 24.8921C22.0975 24.8921 22.0171 24.8052 21.9368 24.8052C21.8564 24.8052 21.7761 24.7182 21.6957 24.7182C21.6153 24.7182 21.6154 24.7182 21.535 24.6312C21.3743 24.5443 21.1332 24.4573 20.9725 24.3703C20.8118 24.2834 20.6511 24.1964 20.4904 24.1094C20.0082 23.8485 19.6064 23.5876 19.285 23.2398C19.2046 23.1528 19.1243 23.1528 19.1243 23.0659L19.0439 22.9789C17.9993 21.9353 17.3564 20.5439 17.1154 18.8916C17.1154 18.8046 17.1154 18.7176 17.1154 18.6307C17.1154 18.5437 17.1154 18.4567 17.1154 18.3698C17.1154 18.1089 17.035 17.761 17.035 17.4132C17.035 16.8914 17.1154 16.4565 17.1957 15.9348C17.1957 15.8478 17.1957 15.7608 17.2761 15.6739C17.2761 15.5869 17.3564 15.4999 17.3564 15.413C17.5975 14.2824 18.0796 13.2388 18.8029 12.3692C18.2404 11.6735 17.5171 11.1517 16.6332 10.8038C14.4636 13.4128 13.7404 17.3262 14.8654 20.7178C16.0707 24.4573 19.2046 26.8053 22.7403 27.3271C23.3028 27.4141 23.8653 27.5011 24.5082 27.5011C27.7225 27.5011 30.3743 26.1966 32.0618 23.8485L32.3028 23.4137L30.2135 21.9353L29.7314 22.5441Z"
          fill="white"/>
    <path d="M24.2683 7.49902C24.1879 7.49902 24.1879 7.49902 24.1075 7.49902C22.3397 7.49902 20.7326 7.93385 19.2861 8.71653C20.0093 9.23832 20.7326 9.93404 21.2951 10.6298C22.179 10.2819 23.1433 10.108 24.1075 10.108H24.1879C26.5986 10.108 28.4468 11.0646 29.7325 12.8039L29.9736 13.1517L32.0629 11.6733L31.8218 11.2385C30.2147 8.8035 27.5629 7.49902 24.2683 7.49902Z"
          fill="white"/>
    <path d="M16.3125 24.8049C15.6696 24.9789 15.0268 25.0658 14.3036 25.0658C10.2054 25.0658 7.23214 22.5439 6.75 18.6305V18.3696L13.7411 18.4565C13.7411 18.1956 13.7411 17.8478 13.7411 17.4999C13.7411 16.9781 13.8214 16.5433 13.8214 16.0215H6.75L6.83035 15.7606C7.39285 12.282 10.125 10.0209 13.5803 10.0209H13.6607C14.625 10.0209 15.4286 10.1949 16.2321 10.5427C16.3125 10.5427 16.3928 10.6297 16.4732 10.6297C16.5536 10.6297 16.6339 10.7167 16.7143 10.7167C17.5178 11.0645 18.2411 11.6733 18.8036 12.282C18.8839 12.369 18.8839 12.369 18.9643 12.456C19.0446 12.5429 19.0446 12.6299 19.125 12.6299C19.7678 13.4995 20.25 14.6301 20.4107 15.8476L20.4911 16.1085H17.4375C17.3571 16.5433 17.2768 17.0651 17.2768 17.5869C17.2768 17.9347 17.3571 18.1956 17.3571 18.5435L23.1428 18.6305V18.1956C23.1428 18.1087 23.1428 18.1087 23.1428 18.0217V17.9347C23.1428 17.8478 23.1428 17.7608 23.1428 17.6738C23.1428 15.2388 22.4196 13.0647 21.1339 11.3254C21.0536 11.2385 21.0536 11.2385 20.9732 11.1515C20.8928 11.0645 20.8928 11.0645 20.8125 10.9776C20.25 10.2818 19.5268 9.58612 18.7232 9.1513C18.6428 9.06433 18.5625 9.06434 18.4821 8.97737C18.4018 8.89041 18.3214 8.8904 18.2411 8.80344C16.875 8.02076 15.3482 7.58594 13.5803 7.58594C10.8482 7.58594 8.4375 8.54255 6.66964 10.3688C4.90179 12.1951 3.9375 14.804 3.9375 17.5869C3.9375 20.4567 4.90178 23.0656 6.75 24.8919C8.59821 26.7182 11.25 27.7617 14.1428 27.7617H14.2232C15.75 27.7617 17.2768 27.4139 18.5625 26.8051C17.8393 26.3703 17.1161 25.8485 16.4732 25.2398C16.4732 25.0658 16.3928 24.8919 16.3125 24.8049Z"
          fill="white"/>
    <path d="M26.4375 0.19397H9.5625C4.25893 0.19397 0 4.8031 0 10.5428V24.4571C0 30.1968 4.25893 34.8059 9.5625 34.8059H26.4375C31.7411 34.8059 36 30.1968 36 24.4571V10.5428C36 4.89006 31.7411 0.19397 26.4375 0.19397ZM33.9107 24.5441C33.9107 28.9793 30.5357 32.6318 26.4375 32.6318H9.5625C5.46429 32.6318 2.08928 28.9793 2.08928 24.5441V10.6297C2.08928 6.19454 5.46429 2.54202 9.5625 2.54202H26.4375C30.5357 2.54202 33.9107 6.19454 33.9107 10.6297V24.5441Z"
          fill="white"/>
</svg>
